<svg width="607" height="612" viewBox="0 0 607 612" fill="none" xmlns="http://www.w3.org/2000/svg">
<path fill-rule="evenodd" clip-rule="evenodd" d="M364.942 218.655C408.812 249.763 419.177 310.579 388.059 354.464C356.936 398.356 296.116 408.696 252.245 377.589C208.346 346.461 197.996 285.654 229.119 241.763C260.236 197.878 321.043 187.527 364.942 218.655ZM123.747 211.581L149.329 236.948C143.387 252.315 139.872 268.342 138.553 284.372L103.808 296.442C97.108 298.768 92.6741 306.337 93.8514 313.327L101.093 355.758C102.272 362.76 108.996 368.386 116.077 368.366L152.912 368.245C159.445 382.926 168.126 396.802 178.815 409.357L163.157 441.631C160.067 447.986 162.235 456.483 168.029 460.591L202.908 485.324C208.688 489.422 217.438 488.667 222.405 483.642L247.671 458.203C263.049 464.131 279.027 467.73 295.062 469.041L307.114 503.827C309.431 510.51 316.957 514.989 323.955 513.785L366.392 506.58C373.378 505.378 379.032 498.675 378.997 491.572L378.87 454.744C393.572 448.225 407.429 439.542 419.993 428.87L451.961 444.31C458.352 447.394 466.564 445.024 470.647 439.266L495.399 404.358C499.498 398.578 499.008 390.059 493.982 385.048L468.714 359.903C474.652 344.511 478.293 328.595 479.585 312.557L514.42 300.541C521.126 298.207 525.605 290.681 524.415 283.693L517.193 241.265C516.003 234.277 509.297 228.642 502.218 228.674L465.376 228.79C458.833 214.092 450.174 200.232 439.492 187.681L455.15 155.407C458.248 149.057 456.065 140.55 450.286 136.452L415.406 111.72C409.612 107.611 400.877 108.377 395.902 113.396L370.636 138.835C355.256 132.895 339.28 129.309 323.254 128.015L311.181 93.2137C308.862 86.5184 301.319 82.0488 294.331 83.2383L251.917 90.4706C244.922 91.6551 239.273 98.3515 239.282 105.446L239.43 142.29C224.742 148.818 210.864 157.486 198.321 168.173L165.768 152.319C159.398 149.249 150.633 151.206 146.535 156.985L121.782 191.893C117.699 197.652 118.743 206.585 123.747 211.581Z" fill="#A9AFBB"/>
<path fill-rule="evenodd" clip-rule="evenodd" d="M229.786 115.127C231.768 109.927 238.77 100.597 242.894 95.8544C247.009 91.1259 255.134 96.5442 247.727 106.734C240.338 116.926 227.183 121.914 229.786 115.127Z" fill="#A9AFBB"/>
<path fill-rule="evenodd" clip-rule="evenodd" d="M522.973 292.754C520.414 297.557 512.947 307.725 509.554 311.678C506.163 315.644 503.429 305.555 506.772 301.341C510.105 297.109 527.519 284.225 522.973 292.754Z" fill="#A9AFBB"/>
<path fill-rule="evenodd" clip-rule="evenodd" d="M85.2851 317.969C85.2851 317.969 91.6264 307.378 97.0026 301.475C102.379 295.571 110.599 302.097 105.885 310.196C101.18 318.313 82.4009 325.833 85.2851 317.969Z" fill="#A9AFBB"/>
<path fill-rule="evenodd" clip-rule="evenodd" d="M364.956 515.928C364.956 515.928 373.533 505.677 377.437 498.054C381.355 490.442 369.877 483.869 364.332 492.43C358.799 500.989 358.419 522.38 364.956 515.928Z" fill="#A9AFBB"/>
<path fill-rule="evenodd" clip-rule="evenodd" d="M354.469 233.424C398.339 264.532 408.699 325.356 377.582 369.24C346.464 413.125 285.638 423.473 241.768 392.365C197.869 361.237 187.523 300.424 218.641 256.539C249.759 212.654 310.57 202.297 354.469 233.424ZM113.275 226.35L138.852 251.724C132.909 267.092 129.394 283.119 128.076 299.148L93.3308 311.218C86.6355 313.537 82.1965 321.113 83.3789 328.096L90.6153 370.534C91.7997 377.529 98.5185 383.162 105.604 383.136L142.439 383.014C148.968 397.702 157.648 411.578 168.342 424.126L152.68 456.407C149.594 462.755 151.762 471.252 157.556 475.361L192.436 500.093C198.216 504.191 206.965 503.436 211.928 498.419L237.199 472.972C252.571 478.908 268.55 482.506 284.59 483.81L296.641 518.596C298.953 525.286 306.484 529.758 313.478 528.561L355.92 521.349C362.901 520.155 368.56 513.444 368.519 506.348L368.398 469.513C383.1 462.995 396.951 454.318 409.516 443.647L441.488 459.079C447.875 462.171 456.086 459.8 460.174 454.035L484.927 419.127C489.02 413.354 488.535 404.828 483.505 399.824L458.237 374.68C464.175 359.288 467.82 343.364 469.112 327.326L503.948 315.31C510.653 312.977 515.132 305.45 513.938 298.47L506.715 256.042C505.531 249.046 498.819 243.419 491.741 243.45L454.903 243.559C448.356 228.869 439.702 215.001 429.02 202.451L444.677 170.176C447.77 163.834 445.588 155.327 439.808 151.228L404.929 126.496C399.134 122.388 390.399 123.153 385.429 128.165L360.158 153.612C344.784 147.664 328.802 144.085 312.782 142.784L300.704 107.99C298.385 101.295 290.846 96.8181 283.853 98.0147L241.439 105.247C234.449 106.424 228.8 113.121 228.809 120.215L228.952 157.066C214.269 163.587 200.391 172.255 187.843 182.95L155.291 167.095C148.926 164.018 140.156 165.982 136.062 171.755L111.31 206.663C107.222 212.428 108.265 221.361 113.275 226.35Z" fill="#DCE2E9"/>
<path d="M414.562 384.369C418.643 387.263 419.612 392.915 416.718 396.996C370.35 462.388 279.413 477.861 214.022 431.493C209.933 428.594 208.97 422.935 211.859 418.861C214.753 414.779 220.412 413.816 224.5 416.715C281.75 457.31 361.345 443.767 401.939 386.518C404.834 382.436 410.48 381.475 414.562 384.369Z" fill="#DCE2E9"/>
<path d="M382.213 194.297C386.295 197.191 387.244 202.839 384.35 206.921C381.461 210.995 375.816 211.969 371.735 209.075C314.492 168.485 234.885 182.03 194.29 239.279C191.401 243.354 185.75 244.322 181.675 241.433C177.586 238.534 176.63 232.88 179.519 228.806C225.892 163.407 316.822 147.929 382.213 194.297Z" fill="#DCE2E9"/>
</svg>
