<svg width="279" height="290" viewBox="0 0 279 290" fill="none" xmlns="http://www.w3.org/2000/svg">
<path fill-rule="evenodd" clip-rule="evenodd" d="M27.294 234.312C26.8391 230.796 26.9703 222.599 27.294 219.223C27.6002 215.846 32.8574 220.168 32.665 223.667C32.4725 227.166 28.0813 240.541 27.294 234.312Z" fill="#CA902B"/>
<path fill-rule="evenodd" clip-rule="evenodd" d="M139.051 214.146C104.061 214.146 75.7012 185.787 75.7012 150.814C75.7012 115.833 104.061 87.4644 139.051 87.4644C174.015 87.4644 202.366 115.833 202.366 150.814C202.366 185.787 174.015 214.146 139.051 214.146ZM269.626 127.196L246.523 123.356C243.882 112.972 239.726 103.149 234.382 94.1563L248.273 74.6843C250.958 70.9316 250.46 65.2544 247.206 61.9916L227.419 42.2046C224.156 38.9418 218.479 38.4694 214.717 41.1549L195.236 55.0635C186.253 49.745 176.42 45.6337 166.037 43.0094L162.206 19.9946C161.462 15.4721 157.106 11.7719 152.496 11.7719H124.687C120.086 11.7719 115.721 15.4721 114.986 19.9946L111.146 42.9919C100.754 45.6249 90.9307 49.7363 81.947 55.0635L62.4662 41.1549C58.7048 38.4694 53.0364 38.9418 49.7735 42.2046L29.9866 61.9916C26.7325 65.2544 26.2601 70.9316 28.9281 74.6843L42.863 94.1738C37.5182 103.158 33.4331 112.972 30.7651 123.356L8.0215 127.196C3.46403 127.957 0 132.304 0 136.897V164.723C0 169.324 3.46403 173.663 8.0215 174.424L30.8701 178.264C33.5206 188.656 37.5532 198.471 42.9067 207.463L28.9631 226.935C26.2776 230.697 26.7412 236.374 29.9866 239.628L49.7735 259.424C53.0364 262.669 58.7048 263.15 62.4662 260.465L81.9645 246.556C90.9482 251.875 100.754 255.986 111.146 258.619L114.986 281.616C115.721 286.156 120.086 289.848 124.687 289.848H152.496C157.106 289.848 161.462 286.156 162.206 281.616L166.037 258.636C176.42 256.003 186.253 251.875 195.236 246.556L214.717 260.465C218.479 263.15 224.156 262.669 227.419 259.424L247.197 239.628C250.442 236.374 250.932 230.697 248.255 226.935L234.338 207.446C239.665 198.462 243.759 188.647 246.401 178.264L269.626 174.424C274.166 173.663 278.084 169.324 278.084 164.723V136.897C278.084 132.304 274.166 127.957 269.626 127.196" fill="#CA902B"/>
<path fill-rule="evenodd" clip-rule="evenodd" d="M249.668 218.23C250.569 221.729 250.342 229.313 249.948 233.38C249.555 237.439 243.213 237.623 243.3 229.427C243.388 221.248 248.479 213.646 249.668 218.23Z" fill="#CA902B"/>
<path fill-rule="evenodd" clip-rule="evenodd" d="M250.018 56.3021C250.018 56.3021 250.621 64.3061 250 69.4584C249.371 74.602 242.556 74.2433 242.005 68.1638C241.454 62.1017 248.592 51.0361 250.018 56.3021Z" fill="#CA902B"/>
<path fill-rule="evenodd" clip-rule="evenodd" d="M27.2205 56.4903C27.2205 56.4903 26.5294 65.1503 27.3342 70.6613C28.1127 76.1722 36.6853 75.3412 36.4054 68.7193C36.1342 62.0974 28.2702 50.6032 27.2205 56.4903Z" fill="#CA902B"/>
<path fill-rule="evenodd" clip-rule="evenodd" d="M139.051 202.374C104.061 202.374 75.7012 174.006 75.7012 139.033C75.7012 104.061 104.061 75.6925 139.051 75.6925C174.015 75.6925 202.366 104.061 202.366 139.033C202.366 174.006 174.015 202.374 139.051 202.374ZM269.626 115.424L246.523 111.584C243.882 101.2 239.726 91.3769 234.382 82.3844L248.273 62.9036C250.958 59.1596 250.46 53.4737 247.206 50.2109L227.419 30.424C224.156 27.1611 218.479 26.6975 214.717 29.383L195.236 43.2828C186.253 37.9731 176.42 33.8617 166.037 31.2287L162.206 8.22268C161.462 3.69146 157.106 -1.33283e-05 152.496 -1.33283e-05H124.687C120.086 -1.33283e-05 115.721 3.69146 114.986 8.22268L111.146 31.2112C100.754 33.853 90.9307 37.9643 81.947 43.2828L62.4662 29.383C58.7048 26.6975 53.0364 27.1611 49.7735 30.424L29.9866 50.2109C26.7325 53.4737 26.2601 59.1596 28.9281 62.9036L42.863 82.3931C37.5182 91.3856 33.4331 101.2 30.7651 111.584L8.0215 115.424C3.46403 116.176 0 120.532 0 125.116V152.942C0 157.543 3.46403 161.891 8.0215 162.652L30.8701 166.483C33.5206 176.884 37.5532 186.699 42.9067 195.691L28.9631 215.163C26.2776 218.925 26.7412 224.593 29.9866 227.856L49.7735 247.634C53.0364 250.897 58.7048 251.378 62.4662 248.693L81.9645 234.775C90.9482 240.103 100.754 244.205 111.146 246.847L114.986 269.844C115.721 274.376 120.086 278.067 124.687 278.067H152.496C157.106 278.067 161.462 274.376 162.206 269.844L166.037 246.856C176.42 244.223 186.253 240.103 195.236 234.775L214.717 248.693C218.479 251.378 224.156 250.897 227.419 247.634L247.197 227.856C250.442 224.593 250.932 218.925 248.255 215.163L234.338 195.674C239.665 186.69 243.759 176.875 246.401 166.483L269.626 162.652C274.166 161.891 278.084 157.543 278.084 152.942V125.116C278.084 120.532 274.166 116.176 269.626 115.424" fill="#FFC52F"/>
<g opacity="0.800003">
<path d="M144.919 227.699C144.919 230.953 142.278 233.586 139.032 233.586C86.9057 233.586 44.4889 191.169 44.4889 139.034C44.4889 135.788 47.1219 133.147 50.3672 133.147C53.6213 133.147 56.2631 135.788 56.2631 139.034C56.2631 184.679 93.3876 221.794 139.032 221.794C142.278 221.794 144.919 224.445 144.919 227.699Z" fill="#FFC52F"/>
</g>
<g opacity="0.800003">
<path d="M233.574 139.036C233.574 142.299 230.941 144.914 227.687 144.914C224.433 144.914 221.791 142.299 221.791 139.045C221.791 93.4089 184.676 56.2756 139.031 56.2756C135.777 56.2756 133.153 53.6426 133.153 50.3885C133.153 47.1431 135.777 44.5014 139.031 44.5014C191.158 44.5014 233.574 86.9095 233.574 139.036Z" fill="#FFC52F"/>
</g>
</svg>
