<svg width="1071" height="549" viewBox="0 0 1071 549" fill="none" xmlns="http://www.w3.org/2000/svg">
<path d="M297.257 123.502V79.1006H475.663V123.502V137.002H489.163H540.514H554.014V123.502V46.3003C554.014 35.791 548.322 27.2866 541.116 21.8665C533.916 16.4506 524.583 13.5 514.839 13.5H258.081C248.346 13.5 239.016 16.4527 231.817 21.8638C224.615 27.2774 218.906 35.7804 218.906 46.3003V123.502V137.002H232.406H283.757H297.257V123.502Z" fill="#A8ADB1"/>
<path d="M297.257 123.502V79.1006H475.663V123.502V137.002H489.163H540.514H554.014V123.502V46.3003C554.014 35.791 548.322 27.2866 541.116 21.8665C533.916 16.4506 524.583 13.5 514.839 13.5H258.081C248.346 13.5 239.016 16.4527 231.817 21.8638C224.615 27.2774 218.906 35.7804 218.906 46.3003V123.502V137.002H232.406H283.757H297.257V123.502Z" stroke="black" stroke-width="27"/>
<path d="M297.257 123.502V79.1006H475.663V123.502V137.002H489.163H540.514H554.014V123.502V46.3003C554.014 35.791 548.322 27.2866 541.116 21.8665C533.916 16.4506 524.583 13.5 514.839 13.5H258.081C248.346 13.5 239.016 16.4527 231.817 21.8638C224.615 27.2774 218.906 35.7804 218.906 46.3003V123.502V137.002H232.406H283.757H297.257V123.502Z" stroke="black" stroke-width="27"/>
<path d="M631.702 318.915L631.682 318.932L631.663 318.95C629.685 320.696 625.904 322.305 621.11 322.305H540.514H527.014V335.805V345.455C527.014 345.614 526.964 346.757 524.889 348.317C522.804 349.884 519.3 351.256 514.838 351.256C510.377 351.256 506.873 349.884 504.788 348.317C502.713 346.757 502.663 345.614 502.663 345.455V335.805V322.305H489.163H283.757H270.257V335.805V345.455C270.257 345.603 270.211 346.748 268.126 348.314C266.033 349.886 262.526 351.256 258.081 351.256C253.637 351.256 250.129 349.886 248.037 348.314C245.952 346.748 245.906 345.603 245.906 345.455V335.805V322.305H232.406H151.784C147.041 322.305 143.242 320.705 141.187 318.911C141.185 318.909 141.184 318.908 141.182 318.906L42.1123 232.066L42.0836 232.041L42.0547 232.016C40.5219 230.688 40.5 229.78 40.5 229.654H27H13.5V490.208C13.5 500.733 19.2053 509.239 26.4149 514.654C33.6168 520.064 42.9474 523.008 52.6757 523.008H720.244C729.981 523.008 739.315 520.066 746.518 514.652C753.731 509.229 759.42 500.722 759.42 490.208V229.654H745.92H732.42C732.42 229.752 732.394 230.692 730.836 232.064C730.833 232.067 730.829 232.069 730.826 232.072L631.702 318.915Z" fill="#592208"/>
<path d="M631.702 318.915L631.682 318.932L631.663 318.95C629.685 320.696 625.904 322.305 621.11 322.305H540.514H527.014V335.805V345.455C527.014 345.614 526.964 346.757 524.889 348.317C522.804 349.884 519.3 351.256 514.838 351.256C510.377 351.256 506.873 349.884 504.788 348.317C502.713 346.757 502.663 345.614 502.663 345.455V335.805V322.305H489.163H283.757H270.257V335.805V345.455C270.257 345.603 270.211 346.748 268.126 348.314C266.033 349.886 262.526 351.256 258.081 351.256C253.637 351.256 250.129 349.886 248.037 348.314C245.952 346.748 245.906 345.603 245.906 345.455V335.805V322.305H232.406H151.784C147.041 322.305 143.242 320.705 141.187 318.911C141.185 318.909 141.184 318.908 141.182 318.906L42.1123 232.066L42.0836 232.041L42.0547 232.016C40.5219 230.688 40.5 229.78 40.5 229.654H27H13.5V490.208C13.5 500.733 19.2053 509.239 26.4149 514.654C33.6168 520.064 42.9474 523.008 52.6757 523.008H720.244C729.981 523.008 739.315 520.066 746.518 514.652C753.731 509.229 759.42 500.722 759.42 490.208V229.654H745.92H732.42C732.42 229.752 732.394 230.692 730.836 232.064C730.833 232.067 730.829 232.069 730.826 232.072L631.702 318.915Z" stroke="black" stroke-width="27"/>
<path d="M631.702 318.915L631.682 318.932L631.663 318.95C629.685 320.696 625.904 322.305 621.11 322.305H540.514H527.014V335.805V345.455C527.014 345.614 526.964 346.757 524.889 348.317C522.804 349.884 519.3 351.256 514.838 351.256C510.377 351.256 506.873 349.884 504.788 348.317C502.713 346.757 502.663 345.614 502.663 345.455V335.805V322.305H489.163H283.757H270.257V335.805V345.455C270.257 345.603 270.211 346.748 268.126 348.314C266.033 349.886 262.526 351.256 258.081 351.256C253.637 351.256 250.129 349.886 248.037 348.314C245.952 346.748 245.906 345.603 245.906 345.455V335.805V322.305H232.406H151.784C147.041 322.305 143.242 320.705 141.187 318.911C141.185 318.909 141.184 318.908 141.182 318.906L42.1123 232.066L42.0836 232.041L42.0547 232.016C40.5219 230.688 40.5 229.78 40.5 229.654H27H13.5V490.208C13.5 500.733 19.2053 509.239 26.4149 514.654C33.6168 520.064 42.9474 523.008 52.6757 523.008H720.244C729.981 523.008 739.315 520.066 746.518 514.652C753.731 509.229 759.42 500.722 759.42 490.208V229.654H745.92H732.42C732.42 229.752 732.394 230.692 730.836 232.064C730.833 232.067 730.829 232.069 730.826 232.072L631.702 318.915Z" stroke="black" stroke-width="27"/>
<path d="M123.372 339.221L123.391 339.238L640.624 329.069L649.521 339.222L649.528 339.216C649.53 339.215 649.531 339.214 649.532 339.213L748.629 252.371L748.638 252.364C755.03 246.753 759.42 238.78 759.42 229.653V142.802C759.42 132.293 753.727 123.788 746.522 118.368C739.322 112.952 729.988 110.002 720.244 110.002H540.514H489.163H283.757H232.406H52.6757C42.9404 110.002 33.6097 112.954 26.4113 118.366C19.2094 123.779 13.5 132.282 13.5 142.802V229.653C13.5 238.737 17.8281 246.729 24.3002 252.38C24.305 252.384 24.3097 252.388 24.3144 252.392L123.372 339.221Z" fill="#954B07"/>
<path d="M123.372 339.221L123.391 339.238L640.624 329.069L649.521 339.222L649.528 339.216C649.53 339.215 649.531 339.214 649.532 339.213L748.629 252.371L748.638 252.364C755.03 246.753 759.42 238.78 759.42 229.653V142.802C759.42 132.293 753.727 123.788 746.522 118.368C739.322 112.952 729.988 110.002 720.244 110.002H540.514H489.163H283.757H232.406H52.6757C42.9404 110.002 33.6097 112.954 26.4113 118.366C19.2094 123.779 13.5 132.282 13.5 142.802V229.653C13.5 238.737 17.8281 246.729 24.3002 252.38C24.305 252.384 24.3097 252.388 24.3144 252.392L123.372 339.221Z" stroke="black" stroke-width="27"/>
<path d="M123.372 339.221L123.391 339.238L640.624 329.069L649.521 339.222L649.528 339.216C649.53 339.215 649.531 339.214 649.532 339.213L748.629 252.371L748.638 252.364C755.03 246.753 759.42 238.78 759.42 229.653V142.802C759.42 132.293 753.727 123.788 746.522 118.368C739.322 112.952 729.988 110.002 720.244 110.002H540.514H489.163H283.757H232.406H52.6757C42.9404 110.002 33.6097 112.954 26.4113 118.366C19.2094 123.779 13.5 132.282 13.5 142.802V229.653C13.5 238.737 17.8281 246.729 24.3002 252.38C24.305 252.384 24.3097 252.388 24.3144 252.392L123.372 339.221Z" stroke="black" stroke-width="27"/>
<path d="M258.081 378.255C267.81 378.255 277.14 375.312 284.342 369.902C291.552 364.486 297.257 355.98 297.257 345.455V335.805V287.554C297.257 277.034 291.548 268.531 284.346 263.118C277.147 257.707 267.817 254.754 258.081 254.754C248.346 254.754 239.016 257.707 231.817 263.118C224.615 268.531 218.906 277.034 218.906 287.554V335.805V345.455C218.906 355.98 224.611 364.486 231.821 369.902C239.023 375.312 248.353 378.255 258.081 378.255Z" fill="#FAAE17"/>
<path d="M258.081 378.255C267.81 378.255 277.14 375.312 284.342 369.902C291.552 364.486 297.257 355.98 297.257 345.455V335.805V287.554C297.257 277.034 291.548 268.531 284.346 263.118C277.147 257.707 267.817 254.754 258.081 254.754C248.346 254.754 239.016 257.707 231.817 263.118C224.615 268.531 218.906 277.034 218.906 287.554V335.805V345.455C218.906 355.98 224.611 364.486 231.821 369.902C239.023 375.312 248.353 378.255 258.081 378.255Z" stroke="black" stroke-width="27"/>
<path d="M258.081 378.255C267.81 378.255 277.14 375.312 284.342 369.902C291.552 364.486 297.257 355.98 297.257 345.455V335.805V287.554C297.257 277.034 291.548 268.531 284.346 263.118C277.147 257.707 267.817 254.754 258.081 254.754C248.346 254.754 239.016 257.707 231.817 263.118C224.615 268.531 218.906 277.034 218.906 287.554V335.805V345.455C218.906 355.98 224.611 364.486 231.821 369.902C239.023 375.312 248.353 378.255 258.081 378.255Z" stroke="black" stroke-width="27"/>
<path d="M514.838 378.255C524.576 378.255 533.909 375.314 541.113 369.899C548.326 364.477 554.014 355.97 554.014 345.455V335.805V287.554C554.014 277.045 548.322 268.54 541.116 263.12C533.916 257.704 524.583 254.754 514.838 254.754C505.094 254.754 495.761 257.704 488.561 263.12C481.355 268.54 475.663 277.045 475.663 287.554V335.805V345.455C475.663 355.97 481.351 364.477 488.564 369.899C495.768 375.314 505.101 378.255 514.838 378.255Z" fill="#FAAE17"/>
<path d="M514.838 378.255C524.576 378.255 533.909 375.314 541.113 369.899C548.326 364.477 554.014 355.97 554.014 345.455V335.805V287.554C554.014 277.045 548.322 268.54 541.116 263.12C533.916 257.704 524.583 254.754 514.838 254.754C505.094 254.754 495.761 257.704 488.561 263.12C481.355 268.54 475.663 277.045 475.663 287.554V335.805V345.455C475.663 355.97 481.351 364.477 488.564 369.899C495.768 375.314 505.101 378.255 514.838 378.255Z" stroke="black" stroke-width="27"/>
<path d="M514.838 378.255C524.576 378.255 533.909 375.314 541.113 369.899C548.326 364.477 554.014 355.97 554.014 345.455V335.805V287.554C554.014 277.045 548.322 268.54 541.116 263.12C533.916 257.704 524.583 254.754 514.838 254.754C505.094 254.754 495.761 257.704 488.561 263.12C481.355 268.54 475.663 277.045 475.663 287.554V335.805V345.455C475.663 355.97 481.351 364.477 488.564 369.899C495.768 375.314 505.101 378.255 514.838 378.255Z" stroke="black" stroke-width="27"/>
<path d="M700.024 271.566L707.948 236.301L755.167 236.695L762.502 272.047C772.454 274.819 782.004 278.872 790.912 284.105L800.825 277.838C793.652 260.599 792.736 241.394 798.234 223.55C803.732 205.706 815.298 190.347 830.93 180.134C846.561 169.922 865.272 165.498 883.821 167.63C902.371 169.762 919.59 178.315 932.497 191.808C945.404 205.301 953.184 222.883 954.491 241.509C955.797 260.135 950.548 278.631 939.651 293.793C928.755 308.956 912.898 319.829 894.827 324.53C876.757 329.231 857.612 327.463 840.708 319.532L834.701 328.692C839.781 337.687 843.671 347.303 846.273 357.3L881.498 365.224L881.103 412.443L845.751 419.778C844.978 422.571 844.095 425.304 843.122 428.006L844.085 432.444L902.083 432.929L911.815 389.648C924.09 386.456 935.896 381.676 946.935 375.431L984.043 399.772L1003.76 380.406L1005.77 378.473L1025.38 359.096L1001.7 321.607C1008.12 310.67 1013.09 298.946 1016.5 286.729L1059.93 277.721L1060.42 219.723L1017.14 209.992C1013.95 197.682 1009.17 185.839 1002.92 174.762L1027.23 137.703L1007.87 118.011L1005.88 115.994L986.577 96.3425L949.088 120.03C938.152 113.606 926.428 108.63 914.21 105.228L905.202 61.7917L847.204 61.3074L837.463 104.588C825.189 107.784 813.383 112.563 802.343 118.805L765.254 94.4942L745.552 113.86L743.585 115.844L723.883 135.21L747.571 172.699C741.143 183.634 736.164 195.358 732.759 207.577L689.332 216.585L688.848 274.582L689.686 274.769C693.087 273.568 696.506 272.486 700.024 271.566Z" fill="#49494A"/>
<path d="M614.289 417.845C616.891 427.842 620.78 437.458 625.861 446.453L606.048 476.648L621.814 492.68L623.391 494.284L639.168 510.316L669.68 490.99C678.588 496.22 688.139 500.269 698.091 503.038L705.426 538.39L752.644 538.784L760.568 503.579C770.566 500.971 780.183 497.075 789.176 491.988L819.371 511.821L835.404 496.054L837.007 494.477L853.039 478.711L833.733 448.188C838.963 439.28 843.013 429.73 845.781 419.778L881.133 412.443L881.528 365.225L846.303 357.3C843.701 347.303 839.811 337.687 834.731 328.693L854.544 298.527L838.777 282.495L837.2 280.892L821.434 264.849L790.911 284.165C782.004 278.932 772.454 274.879 762.501 272.107L755.167 236.695L707.948 236.301L700.024 271.526C690.027 274.131 680.41 278.024 671.416 283.107L641.231 263.284L625.188 279.061L623.585 280.638L607.553 296.404L626.859 326.917C621.629 335.825 617.579 345.375 614.811 355.327L579.459 362.662L579.064 409.92L614.289 417.845Z" fill="#FFC43D"/>
<path d="M614.289 417.845C616.891 427.842 620.78 437.458 625.861 446.453L606.048 476.648L621.814 492.68L623.391 494.284L639.168 510.316L669.68 490.99C678.588 496.22 688.139 500.269 698.091 503.038L705.426 538.39L752.644 538.784L760.568 503.579C770.566 500.971 780.183 497.075 789.176 491.988L819.371 511.821L835.404 496.054L837.007 494.477L853.039 478.711L833.733 448.188C838.963 439.28 843.013 429.73 845.781 419.778L881.133 412.443L881.528 365.225L846.303 357.3C843.701 347.303 839.811 337.687 834.731 328.693L854.544 298.527L838.777 282.495L837.2 280.892L821.434 264.849L790.911 284.165C782.004 278.932 772.454 274.879 762.501 272.107L755.167 236.695L707.948 236.301L700.024 271.526C690.027 274.131 680.41 278.024 671.416 283.107L641.231 263.284L625.188 279.061L623.585 280.638L607.553 296.404L626.859 326.917C621.629 335.825 617.579 345.375 614.811 355.327L579.459 362.662L579.064 409.92L614.289 417.845Z" stroke="black" stroke-width="20" stroke-linecap="round" stroke-linejoin="round"/>
<path d="M700.024 271.566L707.948 236.301L755.167 236.695L762.502 272.047C772.454 274.819 782.004 278.872 790.912 284.105L800.825 277.838C793.652 260.599 792.736 241.394 798.234 223.55C803.732 205.706 815.298 190.347 830.93 180.134C846.561 169.922 865.272 165.498 883.821 167.63C902.371 169.762 919.59 178.315 932.497 191.808C945.404 205.301 953.184 222.883 954.491 241.509C955.797 260.135 950.548 278.631 939.651 293.793C928.755 308.956 912.898 319.829 894.827 324.53C876.757 329.231 857.612 327.463 840.708 319.532L834.701 328.692C839.781 337.687 843.671 347.303 846.273 357.3L881.498 365.224L881.103 412.443L845.751 419.778C844.978 422.571 844.095 425.304 843.122 428.006L844.085 432.444L902.083 432.929L911.815 389.648C924.09 386.456 935.896 381.676 946.935 375.431L984.043 399.772L1003.76 380.406L1005.77 378.473L1025.38 359.096L1001.7 321.607C1008.12 310.67 1013.09 298.946 1016.5 286.729L1059.93 277.721L1060.42 219.723L1017.14 209.992C1013.95 197.682 1009.17 185.839 1002.92 174.762L1027.23 137.703L1007.87 118.011L1005.88 115.994L986.577 96.3425L949.088 120.03C938.152 113.606 926.428 108.63 914.21 105.228L905.202 61.7917L847.204 61.3074L837.463 104.588C825.189 107.784 813.383 112.563 802.343 118.805L765.254 94.4942L745.552 113.86L743.585 115.844L723.883 135.21L747.571 172.699C741.143 183.634 736.164 195.358 732.759 207.577L689.332 216.585L688.848 274.582L689.686 274.769C693.087 273.568 696.506 272.486 700.024 271.566Z" stroke="black" stroke-width="20" stroke-linecap="round" stroke-linejoin="round"/>
<path d="M730.986 304.975C684.612 304.588 646.705 341.868 646.317 388.241C645.93 434.615 683.209 472.522 729.583 472.91C775.957 473.297 813.864 436.017 814.251 389.644C814.639 343.27 777.359 305.363 730.986 304.975Z" fill="#FAAE17"/>
<path d="M727.271 459.823C764.542 460.798 795.59 429.697 796.62 390.356C797.65 351.015 768.271 318.332 731.001 317.356C693.73 316.38 662.682 347.481 661.652 386.823C660.622 426.164 690.001 458.847 727.271 459.823Z" fill="#FAAE17"/>
<path d="M741.528 415.537L741.524 415.538C740.781 415.754 739.951 415.545 739.398 414.992C738.838 414.433 738.628 413.618 738.845 412.859C738.845 412.859 738.845 412.858 738.845 412.858L743.01 398.338C743.011 398.337 743.011 398.336 743.011 398.336C743.116 397.974 743.306 397.653 743.56 397.399L743.562 397.397L769.79 371.106L770.374 370.52L770.374 369.693L770.374 344.261C770.374 340.854 767.614 338.094 764.207 338.094L708.589 338.094L706.589 338.094L706.589 340.094L706.589 357.084C706.589 358.282 705.62 359.251 704.422 359.251L687.497 359.251L686.669 359.251L686.083 359.836L686.071 359.849L685.485 360.434L685.485 361.263L685.485 427.605C685.485 431.012 688.245 433.772 691.652 433.772L764.203 433.772C767.61 433.772 770.37 431.012 770.37 427.605L770.37 402.197L770.37 397.361L766.954 400.785L756.96 410.803C756.959 410.804 756.957 410.805 756.956 410.806C756.69 411.069 756.365 411.26 756.015 411.363C756.014 411.363 756.013 411.363 756.012 411.364L741.528 415.537Z" fill="#D4D9DB" stroke="black" stroke-width="4"/>
<path d="M708.569 338.094L707.738 338.094L707.152 338.683L695.066 350.817L695.065 350.818L697.898 353.642L697.899 353.641L710.005 341.507L713.41 338.094L708.589 338.094L708.569 338.094Z" fill="#D4D9DB" stroke="black" stroke-width="4"/>
<path d="M709.577 340.094C709.577 339.285 709.089 338.556 708.342 338.246C707.595 337.937 706.734 338.108 706.162 338.68L694.64 350.204L694.64 350.205L686.071 358.771C685.499 359.343 685.328 360.204 685.637 360.951C685.947 361.698 686.676 362.186 687.485 362.186L687.497 362.186L703.606 362.186C706.897 362.186 709.577 359.522 709.577 356.229L709.577 340.094Z" fill="#94A6B0" stroke="black" stroke-width="4" stroke-linejoin="round"/>
<path d="M766.954 368.276L766.954 368.276L781.137 354.061C781.138 354.06 781.139 354.059 781.14 354.058C782.3 352.888 783.877 352.242 785.508 352.242C787.144 352.242 788.719 352.896 789.875 354.057C789.875 354.057 789.875 354.057 789.875 354.057L800.196 364.406C800.196 364.407 800.196 364.407 800.196 364.407C802.599 366.815 802.599 370.712 800.191 373.12L800.192 373.118L798.777 371.707L800.19 373.12L766.954 368.276ZM766.954 368.276L740.728 394.566C740.728 394.567 740.727 394.567 740.727 394.567C739.988 395.307 739.453 396.218 739.164 397.223L739.163 397.225L734.996 411.751L734.996 411.752C734.377 413.912 734.98 416.225 736.562 417.813L736.565 417.816C738.157 419.407 740.495 419.994 742.633 419.376M766.954 368.276L742.634 419.375M742.634 419.375L742.078 417.454L742.632 419.376L742.633 419.376M742.634 419.375C742.634 419.375 742.633 419.376 742.633 419.376M742.634 419.375L742.633 419.376" fill="#FBC34E" stroke="black" stroke-width="4"/>
</svg>
