<svg width="773" height="537" viewBox="0 0 773 537" fill="none" xmlns="http://www.w3.org/2000/svg">
<path d="M297.257 123.502V79.1006H475.663V123.502V137.002H489.163H540.514H554.014V123.502V46.3003C554.014 35.791 548.322 27.2866 541.116 21.8665C533.916 16.4506 524.583 13.5 514.839 13.5H258.081C248.346 13.5 239.016 16.4527 231.817 21.8638C224.615 27.2774 218.906 35.7804 218.906 46.3003V123.502V137.002H232.406H283.757H297.257V123.502Z" fill="#A8ADB1"/>
<path d="M297.257 123.502V79.1006H475.663V123.502V137.002H489.163H540.514H554.014V123.502V46.3003C554.014 35.791 548.322 27.2866 541.116 21.8665C533.916 16.4506 524.583 13.5 514.839 13.5H258.081C248.346 13.5 239.016 16.4527 231.817 21.8638C224.615 27.2774 218.906 35.7804 218.906 46.3003V123.502V137.002H232.406H283.757H297.257V123.502Z" stroke="black" stroke-width="27"/>
<path d="M297.257 123.502V79.1006H475.663V123.502V137.002H489.163H540.514H554.014V123.502V46.3003C554.014 35.791 548.322 27.2866 541.116 21.8665C533.916 16.4506 524.583 13.5 514.839 13.5H258.081C248.346 13.5 239.016 16.4527 231.817 21.8638C224.615 27.2774 218.906 35.7804 218.906 46.3003V123.502V137.002H232.406H283.757H297.257V123.502Z" stroke="black" stroke-width="27"/>
<path d="M631.702 318.915L631.682 318.932L631.663 318.95C629.685 320.696 625.904 322.305 621.11 322.305H540.514H527.014V335.805V345.455C527.014 345.614 526.964 346.757 524.889 348.317C522.804 349.884 519.3 351.256 514.838 351.256C510.377 351.256 506.873 349.884 504.788 348.317C502.713 346.757 502.663 345.614 502.663 345.455V335.805V322.305H489.163H283.757H270.257V335.805V345.455C270.257 345.603 270.211 346.748 268.126 348.314C266.033 349.886 262.526 351.256 258.081 351.256C253.637 351.256 250.129 349.886 248.037 348.314C245.952 346.748 245.906 345.603 245.906 345.455V335.805V322.305H232.406H151.784C147.042 322.305 143.245 320.706 141.189 318.912C141.187 318.91 141.184 318.908 141.182 318.906L42.1123 232.066L42.0836 232.041L42.0547 232.016C40.5219 230.688 40.5 229.78 40.5 229.654H27H13.5V490.208C13.5 500.733 19.2053 509.239 26.4149 514.654C33.6168 520.064 42.9474 523.008 52.6757 523.008H720.244C729.981 523.008 739.315 520.066 746.518 514.652C753.731 509.229 759.42 500.722 759.42 490.208V229.654H745.92H732.42C732.42 229.753 732.394 230.696 730.826 232.072L631.702 318.915Z" fill="#592208"/>
<path d="M631.702 318.915L631.682 318.932L631.663 318.95C629.685 320.696 625.904 322.305 621.11 322.305H540.514H527.014V335.805V345.455C527.014 345.614 526.964 346.757 524.889 348.317C522.804 349.884 519.3 351.256 514.838 351.256C510.377 351.256 506.873 349.884 504.788 348.317C502.713 346.757 502.663 345.614 502.663 345.455V335.805V322.305H489.163H283.757H270.257V335.805V345.455C270.257 345.603 270.211 346.748 268.126 348.314C266.033 349.886 262.526 351.256 258.081 351.256C253.637 351.256 250.129 349.886 248.037 348.314C245.952 346.748 245.906 345.603 245.906 345.455V335.805V322.305H232.406H151.784C147.042 322.305 143.245 320.706 141.189 318.912C141.187 318.91 141.184 318.908 141.182 318.906L42.1123 232.066L42.0836 232.041L42.0547 232.016C40.5219 230.688 40.5 229.78 40.5 229.654H27H13.5V490.208C13.5 500.733 19.2053 509.239 26.4149 514.654C33.6168 520.064 42.9474 523.008 52.6757 523.008H720.244C729.981 523.008 739.315 520.066 746.518 514.652C753.731 509.229 759.42 500.722 759.42 490.208V229.654H745.92H732.42C732.42 229.753 732.394 230.696 730.826 232.072L631.702 318.915Z" stroke="black" stroke-width="27"/>
<path d="M631.702 318.915L631.682 318.932L631.663 318.95C629.685 320.696 625.904 322.305 621.11 322.305H540.514H527.014V335.805V345.455C527.014 345.614 526.964 346.757 524.889 348.317C522.804 349.884 519.3 351.256 514.838 351.256C510.377 351.256 506.873 349.884 504.788 348.317C502.713 346.757 502.663 345.614 502.663 345.455V335.805V322.305H489.163H283.757H270.257V335.805V345.455C270.257 345.603 270.211 346.748 268.126 348.314C266.033 349.886 262.526 351.256 258.081 351.256C253.637 351.256 250.129 349.886 248.037 348.314C245.952 346.748 245.906 345.603 245.906 345.455V335.805V322.305H232.406H151.784C147.042 322.305 143.245 320.706 141.189 318.912C141.187 318.91 141.184 318.908 141.182 318.906L42.1123 232.066L42.0836 232.041L42.0547 232.016C40.5219 230.688 40.5 229.78 40.5 229.654H27H13.5V490.208C13.5 500.733 19.2053 509.239 26.4149 514.654C33.6168 520.064 42.9474 523.008 52.6757 523.008H720.244C729.981 523.008 739.315 520.066 746.518 514.652C753.731 509.229 759.42 500.722 759.42 490.208V229.654H745.92H732.42C732.42 229.753 732.394 230.696 730.826 232.072L631.702 318.915Z" stroke="black" stroke-width="27"/>
<path d="M123.391 339.238L123.372 339.221L24.3144 252.392C24.3109 252.389 24.3073 252.386 24.3038 252.383C17.8297 246.732 13.5 238.739 13.5 229.653V142.802C13.5 132.282 19.2094 123.779 26.4113 118.365C33.6097 112.954 42.9404 110.002 52.6757 110.002H232.406H283.757H489.163H540.514H720.244C729.988 110.002 739.322 112.952 746.522 118.368C753.727 123.788 759.42 132.293 759.42 142.802V229.653C759.42 238.78 755.03 246.753 748.638 252.364L748.629 252.371L649.532 339.213C649.529 339.216 649.525 339.219 649.521 339.222M123.391 339.238L640.624 329.069L649.521 339.222M123.391 339.238L123.411 339.256C131.123 345.963 141.527 349.305 151.784 349.305H232.406H245.906V335.805V287.554C245.906 287.421 245.948 286.273 248.04 284.7C250.136 283.125 253.644 281.754 258.081 281.754C262.519 281.754 266.026 283.125 268.122 284.7C270.215 286.273 270.257 287.421 270.257 287.554V335.805V349.305H283.757H489.163H502.663V335.805V287.554C502.663 287.41 502.709 286.264 504.791 284.698C506.88 283.127 510.384 281.754 514.838 281.754C519.293 281.754 522.797 283.127 524.886 284.698C526.968 286.264 527.014 287.41 527.014 287.554V335.805V349.305H540.514H621.136C631.352 349.305 641.794 346.004 649.521 339.222M123.391 339.238L649.521 339.222" fill="#954B07"/>
<path d="M123.391 339.238L123.372 339.221L24.3144 252.392C24.3109 252.389 24.3073 252.386 24.3038 252.383C17.8297 246.732 13.5 238.739 13.5 229.653V142.802C13.5 132.282 19.2094 123.779 26.4113 118.365C33.6097 112.954 42.9404 110.002 52.6757 110.002H232.406H283.757H489.163H540.514H720.244C729.988 110.002 739.322 112.952 746.522 118.368C753.727 123.788 759.42 132.293 759.42 142.802V229.653C759.42 238.78 755.03 246.753 748.638 252.364L748.629 252.371L649.532 339.213C649.529 339.216 649.525 339.219 649.521 339.222M123.391 339.238L640.624 329.069L649.521 339.222M123.391 339.238L123.411 339.256C131.123 345.963 141.527 349.305 151.784 349.305H232.406H245.906V335.805V287.554C245.906 287.421 245.948 286.273 248.04 284.7C250.136 283.125 253.644 281.754 258.081 281.754C262.519 281.754 266.026 283.125 268.122 284.7C270.215 286.273 270.257 287.421 270.257 287.554V335.805V349.305H283.757H489.163H502.663V335.805V287.554C502.663 287.41 502.709 286.264 504.791 284.698C506.88 283.127 510.384 281.754 514.838 281.754C519.293 281.754 522.797 283.127 524.886 284.698C526.968 286.264 527.014 287.41 527.014 287.554V335.805V349.305H540.514H621.136C631.352 349.305 641.794 346.004 649.521 339.222M123.391 339.238L649.521 339.222" stroke="black" stroke-width="27"/>
<path d="M123.391 339.238L123.372 339.221L24.3144 252.392C24.3109 252.389 24.3073 252.386 24.3038 252.383C17.8297 246.732 13.5 238.739 13.5 229.653V142.802C13.5 132.282 19.2094 123.779 26.4113 118.365C33.6097 112.954 42.9404 110.002 52.6757 110.002H232.406H283.757H489.163H540.514H720.244C729.988 110.002 739.322 112.952 746.522 118.368C753.727 123.788 759.42 132.293 759.42 142.802V229.653C759.42 238.78 755.03 246.753 748.638 252.364L748.629 252.371L649.532 339.213C649.529 339.216 649.525 339.219 649.521 339.222M123.391 339.238L640.624 329.069L649.521 339.222M123.391 339.238L123.411 339.256C131.123 345.963 141.527 349.305 151.784 349.305H232.406H245.906V335.805V287.554C245.906 287.421 245.948 286.273 248.04 284.7C250.136 283.125 253.644 281.754 258.081 281.754C262.519 281.754 266.026 283.125 268.122 284.7C270.215 286.273 270.257 287.421 270.257 287.554V335.805V349.305H283.757H489.163H502.663V335.805V287.554C502.663 287.41 502.709 286.264 504.791 284.698C506.88 283.127 510.384 281.754 514.838 281.754C519.293 281.754 522.797 283.127 524.886 284.698C526.968 286.264 527.014 287.41 527.014 287.554V335.805V349.305H540.514H621.136C631.352 349.305 641.794 346.004 649.521 339.222M123.391 339.238L649.521 339.222" stroke="black" stroke-width="27"/>
<path d="M258.081 378.255C267.81 378.255 277.14 375.312 284.342 369.902C291.552 364.486 297.257 355.98 297.257 345.455V335.805V287.554C297.257 277.034 291.548 268.531 284.346 263.118C277.147 257.707 267.817 254.754 258.081 254.754C248.346 254.754 239.016 257.707 231.817 263.118C224.615 268.531 218.906 277.034 218.906 287.554V335.805V345.455C218.906 355.98 224.611 364.486 231.821 369.902C239.023 375.312 248.353 378.255 258.081 378.255Z" fill="#FAAE17"/>
<path d="M258.081 378.255C267.81 378.255 277.14 375.312 284.342 369.902C291.552 364.486 297.257 355.98 297.257 345.455V335.805V287.554C297.257 277.034 291.548 268.531 284.346 263.118C277.147 257.707 267.817 254.754 258.081 254.754C248.346 254.754 239.016 257.707 231.817 263.118C224.615 268.531 218.906 277.034 218.906 287.554V335.805V345.455C218.906 355.98 224.611 364.486 231.821 369.902C239.023 375.312 248.353 378.255 258.081 378.255Z" stroke="black" stroke-width="27"/>
<path d="M258.081 378.255C267.81 378.255 277.14 375.312 284.342 369.902C291.552 364.486 297.257 355.98 297.257 345.455V335.805V287.554C297.257 277.034 291.548 268.531 284.346 263.118C277.147 257.707 267.817 254.754 258.081 254.754C248.346 254.754 239.016 257.707 231.817 263.118C224.615 268.531 218.906 277.034 218.906 287.554V335.805V345.455C218.906 355.98 224.611 364.486 231.821 369.902C239.023 375.312 248.353 378.255 258.081 378.255Z" stroke="black" stroke-width="27"/>
<path d="M514.839 378.255C524.576 378.255 533.909 375.314 541.113 369.899C548.326 364.477 554.014 355.97 554.014 345.455V335.805V287.554C554.014 277.045 548.322 268.54 541.116 263.12C533.916 257.704 524.583 254.754 514.839 254.754C505.094 254.754 495.761 257.704 488.561 263.12C481.355 268.54 475.663 277.045 475.663 287.554V335.805V345.455C475.663 355.97 481.351 364.477 488.564 369.899C495.768 375.314 505.101 378.255 514.839 378.255Z" fill="#FAAE17"/>
<path d="M514.839 378.255C524.576 378.255 533.909 375.314 541.113 369.899C548.326 364.477 554.014 355.97 554.014 345.455V335.805V287.554C554.014 277.045 548.322 268.54 541.116 263.12C533.916 257.704 524.583 254.754 514.839 254.754C505.094 254.754 495.761 257.704 488.561 263.12C481.355 268.54 475.663 277.045 475.663 287.554V335.805V345.455C475.663 355.97 481.351 364.477 488.564 369.899C495.768 375.314 505.101 378.255 514.839 378.255Z" stroke="black" stroke-width="27"/>
<path d="M514.839 378.255C524.576 378.255 533.909 375.314 541.113 369.899C548.326 364.477 554.014 355.97 554.014 345.455V335.805V287.554C554.014 277.045 548.322 268.54 541.116 263.12C533.916 257.704 524.583 254.754 514.839 254.754C505.094 254.754 495.761 257.704 488.561 263.12C481.355 268.54 475.663 277.045 475.663 287.554V335.805V345.455C475.663 355.97 481.351 364.477 488.564 369.899C495.768 375.314 505.101 378.255 514.839 378.255Z" stroke="black" stroke-width="27"/>
</svg>
