<svg width="719" height="483" viewBox="0 0 719 483" fill="none" xmlns="http://www.w3.org/2000/svg">
<path d="M256.757 38.6006H462.163V96.5016H513.514V19.3003C513.514 8.64654 502.037 0 487.839 0H231.081C216.908 0 205.406 8.64654 205.406 19.3003V96.5016H256.757V38.6006Z" fill="#A8ADB1"/>
<path d="M256.757 38.6006H462.163V96.5016H513.514V19.3003C513.514 8.64654 502.037 0 487.839 0H231.081C216.908 0 205.406 8.64654 205.406 19.3003V96.5016H256.757V38.6006Z" stroke="black"/>
<path d="M256.757 38.6006H462.163V96.5016H513.514V19.3003C513.514 8.64654 502.037 0 487.839 0H231.081C216.908 0 205.406 8.64654 205.406 19.3003V96.5016H256.757V38.6006Z" stroke="black"/>
<path d="M613.598 302.069C608.745 306.354 601.607 308.805 594.11 308.805H513.514V318.455C513.514 329.129 502.037 337.756 487.838 337.756C473.64 337.756 462.163 329.129 462.163 318.455V308.805H256.757V318.455C256.757 329.129 245.254 337.756 231.081 337.756C216.908 337.756 205.406 329.129 205.406 318.455V308.805H124.784C117.287 308.805 110.174 306.335 105.296 302.069L6.21352 215.218C2.18244 211.725 0 207.266 0 202.654V463.208C0 473.881 11.5027 482.508 25.6757 482.508H693.244C707.443 482.508 718.92 473.881 718.92 463.208V202.654C718.92 207.266 716.712 211.725 712.732 215.218L613.598 302.069Z" fill="#592208"/>
<path d="M613.598 302.069C608.745 306.354 601.607 308.805 594.11 308.805H513.514V318.455C513.514 329.129 502.037 337.756 487.838 337.756C473.64 337.756 462.163 329.129 462.163 318.455V308.805H256.757V318.455C256.757 329.129 245.254 337.756 231.081 337.756C216.908 337.756 205.406 329.129 205.406 318.455V308.805H124.784C117.287 308.805 110.174 306.335 105.296 302.069L6.21352 215.218C2.18244 211.725 0 207.266 0 202.654V463.208C0 473.881 11.5027 482.508 25.6757 482.508H693.244C707.443 482.508 718.92 473.881 718.92 463.208V202.654C718.92 207.266 716.712 211.725 712.732 215.218L613.598 302.069Z" stroke="black"/>
<path d="M613.598 302.069C608.745 306.354 601.607 308.805 594.11 308.805H513.514V318.455C513.514 329.129 502.037 337.756 487.838 337.756C473.64 337.756 462.163 329.129 462.163 318.455V308.805H256.757V318.455C256.757 329.129 245.254 337.756 231.081 337.756C216.908 337.756 205.406 329.129 205.406 318.455V308.805H124.784C117.287 308.805 110.174 306.335 105.296 302.069L6.21352 215.218C2.18244 211.725 0 207.266 0 202.654V463.208C0 473.881 11.5027 482.508 25.6757 482.508H693.244C707.443 482.508 718.92 473.881 718.92 463.208V202.654C718.92 207.266 716.712 211.725 712.732 215.218L613.598 302.069Z" stroke="black"/>
<path d="M693.244 96.5018H513.514H462.163H256.757H205.406H25.6757C11.5027 96.5018 0 105.148 0 115.802V202.653C0 207.266 2.18243 211.725 6.18784 215.218L105.27 302.069C110.174 306.335 117.287 308.805 124.784 308.805H205.406V260.554C205.406 249.901 216.908 241.254 231.081 241.254C245.254 241.254 256.757 249.901 256.757 260.554V308.805H462.163V260.554C462.163 249.901 473.64 241.254 487.838 241.254C502.037 241.254 513.514 249.901 513.514 260.554V308.805H594.136C601.633 308.805 608.745 306.354 613.624 302.069L712.732 215.218C716.712 211.725 718.92 207.266 718.92 202.653V115.802C718.92 105.148 707.443 96.5018 693.244 96.5018Z" fill="#954B07"/>
<path d="M693.244 96.5018H513.514H462.163H256.757H205.406H25.6757C11.5027 96.5018 0 105.148 0 115.802V202.653C0 207.266 2.18243 211.725 6.18784 215.218L105.27 302.069C110.174 306.335 117.287 308.805 124.784 308.805H205.406V260.554C205.406 249.901 216.908 241.254 231.081 241.254C245.254 241.254 256.757 249.901 256.757 260.554V308.805H462.163V260.554C462.163 249.901 473.64 241.254 487.838 241.254C502.037 241.254 513.514 249.901 513.514 260.554V308.805H594.136C601.633 308.805 608.745 306.354 613.624 302.069L712.732 215.218C716.712 211.725 718.92 207.266 718.92 202.653V115.802C718.92 105.148 707.443 96.5018 693.244 96.5018Z" stroke="black"/>
<path d="M693.244 96.5018H513.514H462.163H256.757H205.406H25.6757C11.5027 96.5018 0 105.148 0 115.802V202.653C0 207.266 2.18243 211.725 6.18784 215.218L105.27 302.069C110.174 306.335 117.287 308.805 124.784 308.805H205.406V260.554C205.406 249.901 216.908 241.254 231.081 241.254C245.254 241.254 256.757 249.901 256.757 260.554V308.805H462.163V260.554C462.163 249.901 473.64 241.254 487.838 241.254C502.037 241.254 513.514 249.901 513.514 260.554V308.805H594.136C601.633 308.805 608.745 306.354 613.624 302.069L712.732 215.218C716.712 211.725 718.92 207.266 718.92 202.653V115.802C718.92 105.148 707.443 96.5018 693.244 96.5018Z" stroke="black"/>
<path d="M231.081 337.755C245.254 337.755 256.757 329.128 256.757 318.455V308.805V260.554C256.757 249.9 245.254 241.254 231.081 241.254C216.908 241.254 205.406 249.9 205.406 260.554V308.805V318.455C205.406 329.128 216.908 337.755 231.081 337.755Z" fill="#FAAE17"/>
<path d="M231.081 337.755C245.254 337.755 256.757 329.128 256.757 318.455V308.805V260.554C256.757 249.9 245.254 241.254 231.081 241.254C216.908 241.254 205.406 249.9 205.406 260.554V308.805V318.455C205.406 329.128 216.908 337.755 231.081 337.755Z" stroke="black"/>
<path d="M231.081 337.755C245.254 337.755 256.757 329.128 256.757 318.455V308.805V260.554C256.757 249.9 245.254 241.254 231.081 241.254C216.908 241.254 205.406 249.9 205.406 260.554V308.805V318.455C205.406 329.128 216.908 337.755 231.081 337.755Z" stroke="black"/>
<path d="M487.838 337.755C502.037 337.755 513.514 329.128 513.514 318.455V308.805V260.554C513.514 249.9 502.037 241.254 487.838 241.254C473.64 241.254 462.163 249.9 462.163 260.554V308.805V318.455C462.163 329.128 473.64 337.755 487.838 337.755Z" fill="#FAAE17"/>
<path d="M487.838 337.755C502.037 337.755 513.514 329.128 513.514 318.455V308.805V260.554C513.514 249.9 502.037 241.254 487.838 241.254C473.64 241.254 462.163 249.9 462.163 260.554V308.805V318.455C462.163 329.128 473.64 337.755 487.838 337.755Z" stroke="black"/>
<path d="M487.838 337.755C502.037 337.755 513.514 329.128 513.514 318.455V308.805V260.554C513.514 249.9 502.037 241.254 487.838 241.254C473.64 241.254 462.163 249.9 462.163 260.554V308.805V318.455C462.163 329.128 473.64 337.755 487.838 337.755Z" stroke="black"/>
</svg>
